<svg xmlns="http://www.w3.org/2000/svg" viewBox="0 0 370 64" width="100%" height="64" preserveAspectRatio="none"><svg class="hoverBackground--QdCrs" width="0" height="100%"><rect width="100%" height="100%" rx="4" ry="4"/><line stroke-width="2" stroke-linecap="round" x1="100%" x2="100%" y1="0" y2="100%"/></svg><svg viewBox="0 0 370 32" width="100%" height="32" x="0" y="16"><defs><clipPath id="bars_160166"><path d="M0 9L1 12L2 13L3 12L4 10L5 12L6 13L7 13L8 10L9 12L10 14L11 10L12 12L13 12L14 13L15 9L16 11L17 13L18 12L19 11L20 12L21 13L22 14L23 11L24 12L25 13L26 12L27 0L28 3L29 7L30 1L31 5L32 7L33 2L34 0L35 2L36 8L37 4L38 3L39 4L40 5L41 0L42 0L43 2L44 9L45 1L46 3L47 6L48 5L49 1L50 2L51 8L52 4L53 4L54 6L55 3L56 2L57 0L58 0L59 2L60 2L61 4L62 7L63 5L64 0L65 2L66 7L67 4L68 2L69 3L70 4L71 1L72 0L73 0L74 3L75 1L76 3L77 6L78 1L80 1L81 8L82 1L83 2L84 5L85 5L86 1L87 0L88 0L89 2L90 0L91 0L92 6L93 2L94 0L95 2L96 7L97 4L98 1L99 4L100 4L101 0L102 0L103 2L104 9L105 1L106 0L107 5L108 2L109 0L110 2L111 7L112 4L113 1L114 5L115 4L116 0L117 0L118 2L119 3L120 1L121 5L122 5L124 4L125 0L126 2L127 6L128 3L129 0L130 3L131 4L132 1L133 0L134 0L135 2L136 0L137 4L138 5L139 1L141 1L142 5L143 0L144 1L145 4L146 4L147 1L148 0L149 0L150 2L151 5L152 9L153 9L154 8L155 4L156 8L157 10L158 7L159 7L160 9L161 9L162 4L163 8L164 9L165 10L166 5L167 5L168 9L169 6L170 6L171 8L172 8L173 9L174 8L175 10L176 9L177 0L178 0L179 2L180 5L181 0L182 3L183 5L184 0L185 0L186 1L187 5L188 3L189 0L190 3L191 3L192 0L193 0L194 1L195 7L196 0L197 0L198 4L199 0L201 0L202 4L203 2L204 1L205 4L206 1L207 0L209 0L210 3L211 4L212 9L213 11L214 10L215 6L216 9L217 11L218 4L219 0L220 2L221 3L222 0L224 0L225 1L226 0L227 2L228 5L229 0L230 0L231 1L232 6L233 0L234 0L235 4L236 4L237 1L238 0L239 0L240 1L241 0L242 3L243 5L244 2L245 0L247 2L248 6L249 3L250 0L251 3L252 4L253 0L254 0L255 2L256 7L257 0L258 2L259 6L260 4L261 0L262 2L263 8L264 4L265 2L266 5L267 2L268 0L270 0L271 1L272 0L273 4L274 5L275 2L276 0L277 0L278 5L279 2L280 0L281 2L282 2L283 0L287 0L288 1L289 4L290 0L292 0L293 3L294 0L295 0L296 4L297 3L298 0L300 0L301 1L302 0L303 4L304 5L305 0L306 0L307 1L308 5L309 3L310 0L311 3L312 3L313 0L314 0L315 1L316 7L317 0L318 1L319 4L320 0L322 0L323 4L324 2L325 1L326 5L327 2L328 0L330 0L331 2L332 0L333 0L334 6L335 2L336 0L337 2L338 7L339 4L340 1L341 4L342 4L343 0L344 0L345 2L346 9L347 2L348 1L349 5L350 2L351 0L352 2L353 5L354 3L355 1L356 4L357 4L358 0L359 0L360 2L361 4L362 13L363 14L364 14L365 15L370 15L370 16L365 16L364 17L363 17L362 18L361 27L360 29L359 31L358 31L357 27L356 27L355 30L354 28L353 26L352 29L351 31L350 29L349 26L348 30L347 29L346 22L345 29L344 31L343 31L342 27L341 27L340 30L339 27L338 24L337 29L336 31L335 29L334 25L333 31L332 31L331 29L330 31L328 31L327 29L326 26L325 30L324 29L323 27L322 31L320 31L319 27L318 30L317 31L316 24L315 30L314 31L313 31L312 28L311 28L310 31L309 28L308 26L307 30L306 31L305 31L304 26L303 27L302 31L301 30L300 31L298 31L297 28L296 27L295 31L294 31L293 28L292 31L290 31L289 27L288 30L287 31L283 31L282 29L281 29L280 31L279 29L278 26L277 31L276 31L275 29L274 26L273 27L272 31L271 30L270 31L268 31L267 29L266 26L265 29L264 27L263 23L262 29L261 31L260 27L259 25L258 29L257 31L256 24L255 29L254 31L253 31L252 27L251 28L250 31L249 28L248 25L247 29L245 31L244 29L243 26L242 28L241 31L240 30L239 31L238 31L237 30L236 27L235 27L234 31L233 31L232 25L231 30L230 31L229 31L228 26L227 29L226 31L225 30L224 31L222 31L221 28L220 29L219 31L218 27L217 20L216 22L215 25L214 21L213 20L212 22L211 27L210 28L209 31L207 31L206 30L205 27L204 30L203 29L202 27L201 31L199 31L198 27L197 31L196 31L195 24L194 30L193 31L192 31L191 28L190 28L189 31L188 28L187 26L186 30L185 31L184 31L183 26L182 28L181 31L180 26L179 29L178 31L177 31L176 22L175 21L174 23L173 22L172 23L171 23L170 25L169 25L168 22L167 26L166 26L165 21L164 22L163 23L162 27L161 22L160 22L159 24L158 24L157 21L156 23L155 27L154 23L153 22L152 22L151 26L150 29L149 31L148 31L147 30L146 27L145 27L144 30L143 31L142 26L141 30L139 30L138 26L137 27L136 31L135 29L134 31L133 31L132 30L131 27L130 28L129 31L128 28L127 25L126 29L125 31L124 27L122 26L121 26L120 30L119 28L118 29L117 31L116 31L115 27L114 26L113 30L112 27L111 24L110 29L109 31L108 29L107 26L106 31L105 30L104 22L103 29L102 31L101 31L100 27L99 27L98 30L97 27L96 24L95 29L94 31L93 29L92 25L91 31L90 31L89 29L88 31L87 31L86 30L85 26L84 26L83 29L82 30L81 23L80 30L78 30L77 25L76 28L75 30L74 28L73 31L72 31L71 30L70 27L69 28L68 29L67 27L66 24L65 29L64 31L63 26L62 24L61 27L60 29L59 29L58 31L57 31L56 29L55 28L54 25L53 27L52 27L51 23L50 29L49 30L48 26L47 25L46 28L45 30L44 22L43 29L42 31L41 31L40 26L39 27L38 28L37 27L36 23L35 29L34 31L33 29L32 24L31 26L30 30L29 24L28 28L27 31L26 19L25 18L24 19L23 20L22 17L21 18L20 19L19 20L18 19L17 18L16 20L15 22L14 18L13 19L12 19L11 21L10 17L9 19L8 21L7 18L6 18L5 19L4 21L3 19L2 18L1 19L0 22Z" stroke-width="0"/></clipPath></defs><g clip-path="url(#bars_160166)"><rect class="trackBar--XcykU" width="100%" height="100%"/><rect class="hoverBar--60M5G" width="0" height="100%"/><rect class="progressBar--Qyz-N" width="0" height="100%"/></g></svg></svg>