<svg xmlns="http://www.w3.org/2000/svg" viewBox="0 0 370 64" width="100%" height="64" preserveAspectRatio="none"><svg class="hoverBackground--QdCrs" width="0" height="100%"><rect width="100%" height="100%" rx="4" ry="4"/><line stroke-width="2" stroke-linecap="round" x1="100%" x2="100%" y1="0" y2="100%"/></svg><svg viewBox="0 0 370 32" width="100%" height="32" x="0" y="16"><defs><clipPath id="bars_159456"><path d="M0 0L1 2L2 2L3 0L4 5L5 7L6 1L7 3L8 1L9 1L10 4L12 7L13 6L14 0L15 5L16 8L17 1L18 8L19 8L20 2L21 2L22 6L24 6L25 3L26 0L27 8L28 0L29 3L30 5L31 3L32 6L33 5L35 1L36 3L37 3L38 4L39 6L40 7L41 5L42 0L43 3L44 5L45 4L47 8L48 8L49 2L50 4L51 8L52 4L53 5L54 2L55 11L56 1L58 2L59 2L60 3L61 5L62 6L63 3L64 0L65 5L66 3L67 3L68 5L70 5L71 0L72 4L73 8L74 5L75 9L76 9L77 4L78 1L79 6L81 4L82 6L83 0L84 8L85 3L86 2L87 5L88 3L89 6L90 5L91 1L93 2L94 5L95 3L96 6L97 7L98 4L99 3L100 3L101 6L102 4L103 8L105 8L106 4L107 2L108 8L109 3L110 2L111 2L112 9L113 4L114 0L116 3L117 0L118 4L119 5L120 3L121 0L122 5L123 2L124 2L125 9L126 3L128 3L129 2L130 6L131 3L132 5L133 6L134 5L135 0L136 5L137 2L139 2L140 1L141 3L142 3L143 0L144 3L145 2L146 4L147 3L148 3L149 1L151 4L152 3L153 1L154 12L155 5L156 1L157 1L158 4L159 3L160 4L162 6L163 3L164 1L165 6L166 1L167 1L168 4L169 5L170 4L171 0L172 4L174 0L175 2L176 4L177 4L178 0L179 2L180 0L181 0L182 9L183 5L185 2L186 0L187 6L188 4L189 2L190 7L191 5L192 0L193 6L194 1L195 3L197 2L198 2L199 3L200 0L201 3L202 4L203 2L204 3L205 3L206 1L207 7L209 2L210 3L211 11L212 5L213 2L214 0L215 5L216 5L217 2L218 5L220 3L221 0L222 5L223 1L224 0L225 3L226 3L227 4L228 0L229 2L232 2L233 4L234 4L235 0L236 4L237 1L238 3L239 7L240 4L241 2L243 0L244 7L245 7L246 4L247 4L248 5L249 0L250 6L251 2L252 2L253 4L255 2L256 5L257 0L258 3L259 5L260 3L261 3L262 4L263 0L264 6L266 2L267 1L268 11L269 4L270 4L271 0L272 4L273 5L274 3L275 6L276 5L278 1L279 6L280 3L281 1L282 5L283 2L284 9L285 0L286 2L287 3L288 2L290 4L291 6L292 1L293 4L294 1L295 2L296 6L297 7L298 6L299 0L301 5L302 7L303 2L304 7L305 6L306 0L307 4L308 1L309 1L310 3L311 0L313 5L314 0L315 2L316 5L317 0L318 4L319 4L320 1L321 3L322 3L324 1L325 7L326 8L327 5L328 0L329 3L330 6L331 0L332 6L333 6L334 0L336 4L337 3L338 0L339 3L340 0L341 9L342 8L343 9L344 10L345 11L347 12L348 12L349 13L352 13L353 14L355 14L356 15L370 15L370 16L356 16L355 17L353 17L352 18L349 18L348 19L347 19L345 20L344 21L343 22L342 23L341 22L340 31L339 28L338 31L337 28L336 27L334 31L333 25L332 25L331 31L330 25L329 28L328 31L327 26L326 23L325 24L324 30L322 28L321 28L320 30L319 27L318 27L317 31L316 26L315 29L314 31L313 26L311 31L310 28L309 30L308 30L307 27L306 31L305 25L304 24L303 29L302 24L301 26L299 31L298 25L297 24L296 25L295 29L294 30L293 27L292 30L291 25L290 27L288 29L287 28L286 29L285 31L284 22L283 29L282 26L281 30L280 28L279 25L278 30L276 26L275 25L274 28L273 26L272 27L271 31L270 27L269 27L268 20L267 30L266 29L264 25L263 31L262 27L261 28L260 28L259 26L258 28L257 31L256 26L255 29L253 27L252 29L251 29L250 25L249 31L248 26L247 27L246 27L245 24L244 24L243 31L241 29L240 27L239 24L238 28L237 30L236 27L235 31L234 27L233 27L232 29L229 29L228 31L227 27L226 28L225 28L224 31L223 30L222 26L221 31L220 28L218 26L217 29L216 26L215 26L214 31L213 29L212 26L211 20L210 28L209 29L207 24L206 30L205 28L204 28L203 29L202 27L201 28L200 31L199 28L198 29L197 29L195 28L194 30L193 25L192 31L191 26L190 24L189 29L188 27L187 25L186 31L185 29L183 26L182 22L181 31L180 31L179 29L178 31L177 27L176 27L175 29L174 31L172 27L171 31L170 27L169 26L168 27L167 30L166 30L165 25L164 30L163 28L162 25L160 27L159 28L158 27L157 30L156 30L155 26L154 19L153 30L152 28L151 27L149 30L148 28L147 28L146 27L145 29L144 28L143 31L142 28L141 28L140 30L139 29L137 29L136 26L135 31L134 26L133 25L132 26L131 28L130 25L129 29L128 28L126 28L125 22L124 29L123 29L122 26L121 31L120 28L119 26L118 27L117 31L116 28L114 31L113 27L112 22L111 29L110 29L109 28L108 23L107 29L106 27L105 23L103 23L102 27L101 25L100 28L99 28L98 27L97 24L96 25L95 28L94 26L93 29L91 30L90 26L89 25L88 28L87 26L86 29L85 28L84 23L83 31L82 25L81 27L79 25L78 30L77 27L76 22L75 22L74 26L73 23L72 27L71 31L70 26L68 26L67 28L66 28L65 26L64 31L63 28L62 25L61 26L60 28L59 29L58 29L56 30L55 20L54 29L53 26L52 27L51 23L50 27L49 29L48 23L47 23L45 27L44 26L43 28L42 31L41 26L40 24L39 25L38 27L37 28L36 28L35 30L33 26L32 25L31 28L30 26L29 28L28 31L27 23L26 31L25 28L24 25L22 25L21 29L20 29L19 23L18 23L17 30L16 23L15 26L14 31L13 25L12 24L10 27L9 30L8 30L7 28L6 30L5 24L4 26L3 31L2 29L1 29L0 31Z" stroke-width="0"/></clipPath></defs><g clip-path="url(#bars_159456)"><rect class="trackBar--XcykU" width="100%" height="100%"/><rect class="hoverBar--60M5G" width="0" height="100%"/><rect class="progressBar--Qyz-N" width="0" height="100%"/></g></svg></svg>